<?xml version="1.0" encoding="utf-8"?>
<!-- Generator: Adobe Illustrator 21.1.0, SVG Export Plug-In . SVG Version: 6.00 Build 0)  -->
<svg version="1.1" id="Layer_1" xmlns="http://www.w3.org/2000/svg" xmlns:xlink="http://www.w3.org/1999/xlink" x="0px" y="0px"
	 viewBox="0 0 566.5 76" style="enable-background:new 0 0 566.5 76;" xml:space="preserve">
<style type="text/css">
	.st0{fill:#FF5252;}
	.st1{fill:none;stroke:#FFFFFF;stroke-miterlimit:10;}
	.st2{fill:#EEEEEE;}
	.st3{fill:#FFFFFF;}
	.st4{fill:none;}
	.st5{fill:#00B0FF;}
	.st6{fill:#757575;}
	.st7{fill:#BDBDBD;}
	.st8{fill:#E0E0E0;}
	.st9{fill:none;stroke:#E0E0E0;stroke-miterlimit:10;}
	.st10{fill:none;stroke:#EEEEEE;stroke-width:6;stroke-miterlimit:10;}
	.st11{fill:#EA80FC;}
	.st12{fill:#FFFFFF;stroke:#FF5252;stroke-miterlimit:10;}
	.st13{fill:#FFFFFF;stroke:#EEEEEE;stroke-miterlimit:10;}
	.st14{fill:#424242;}
	.st15{fill:#FAFAFA;}
</style>
<g>
	<g>
		<path class="st0" d="M36,63.5c0.2-0.3,0.5-0.4,0.8-0.2c0.3,0.2,0.4,0.5,0.2,0.8c-1.6,2.7-3.8,4.9-6.5,6.5c-2.8,1.6-5.8,2.4-9,2.4
			c-4.9,0-9.1-1.7-12.6-5.2c-3.5-3.5-5.2-7.7-5.2-12.6c0-4.9,1.7-9.1,5.2-12.6c3.5-3.5,7.7-5.2,12.6-5.2c3.2,0,6.2,0.8,9,2.4
			c2.8,1.6,4.9,3.8,6.5,6.5c0.2,0.3,0.1,0.6-0.2,0.8c-0.3,0.2-0.6,0.1-0.8-0.2c-1.5-2.6-3.5-4.7-6.2-6.2c-2.6-1.5-5.4-2.2-8.4-2.2
			c-4.6,0-8.6,1.6-11.9,4.9c-3.3,3.3-4.9,7.2-4.9,11.8c0,4.6,1.6,8.6,4.9,11.8c3.3,3.3,7.2,4.9,11.9,4.9c3,0,5.8-0.7,8.4-2.2
			C32.4,68.1,34.5,66.1,36,63.5z"/>
		<path class="st0" d="M49.1,42.6c3.5-3.5,7.7-5.2,12.5-5.2c4.9,0,9.1,1.7,12.6,5.2c3.5,3.5,5.2,7.7,5.2,12.5v17.3
			c0,0.4-0.2,0.5-0.6,0.5c-0.4,0-0.5-0.2-0.5-0.5V55.2c0-4.6-1.6-8.5-4.9-11.8c-3.3-3.3-7.2-4.9-11.8-4.9c-4.6,0-8.5,1.6-11.8,4.9
			c-3.3,3.3-4.9,7.2-4.9,11.8c0,4.6,1.6,8.5,4.9,11.8c3.3,3.3,7.2,4.9,11.8,4.9c4.1,0,7.7-1.3,10.8-4c0.3-0.2,0.5-0.2,0.7,0
			c0.3,0.3,0.2,0.6,0,0.8C69.8,71.6,66,73,61.6,73c-4.9,0-9.1-1.7-12.5-5.2c-3.5-3.5-5.2-7.7-5.2-12.5
			C43.9,50.3,45.6,46.1,49.1,42.6z"/>
		<path class="st0" d="M86,38c0-0.4,0.2-0.6,0.5-0.6c0.4,0,0.6,0.2,0.6,0.6v34.5c0,0.4-0.2,0.5-0.6,0.5c-0.4,0-0.5-0.2-0.5-0.5V38z
			 M121.6,72.5c0,0.4-0.2,0.5-0.6,0.5c-0.4,0-0.5-0.2-0.5-0.5V55.2c0-4.6-1.6-8.5-4.9-11.8c-3.3-3.3-7.2-4.9-11.8-4.9
			c-4.1,0-7.7,1.3-10.8,4c-0.3,0.2-0.5,0.2-0.8,0c-0.2-0.3-0.2-0.6,0.1-0.8c3.3-2.8,7.1-4.2,11.5-4.2c4.9,0,9.1,1.7,12.6,5.2
			c3.5,3.5,5.2,7.7,5.2,12.5V72.5z M126.8,41.7c3.3-2.8,7.1-4.2,11.5-4.2c4.9,0,9.1,1.7,12.6,5.2c3.5,3.5,5.2,7.7,5.2,12.5v17.2
			c0,0.4-0.2,0.5-0.5,0.5c-0.4,0-0.6-0.2-0.6-0.5V55.2c0-4.6-1.6-8.5-4.9-11.8c-3.3-3.3-7.2-4.9-11.8-4.9c-4.1,0-7.7,1.3-10.8,4
			c-0.3,0.2-0.5,0.2-0.8,0C126.4,42.2,126.5,41.9,126.8,41.7z"/>
		<path class="st0" d="M163.2,37.4c0.4,0,0.6,0.2,0.6,0.5v34.6c0,0.4-0.2,0.5-0.6,0.5c-0.4,0-0.5-0.2-0.5-0.5V37.9
			C162.7,37.5,162.9,37.4,163.2,37.4z"/>
		<path class="st0" d="M171.3,3c0.4,0,0.6,0.2,0.6,0.5v68.9c0,0.4-0.2,0.5-0.6,0.5c-0.4,0-0.5-0.2-0.5-0.5V3.5
			C170.8,3.2,171,3,171.3,3z"/>
		<path class="st0" d="M179.2,3c0.4,0,0.6,0.2,0.6,0.5v68.9c0,0.4-0.2,0.5-0.6,0.5c-0.4,0-0.5-0.2-0.5-0.5V3.5
			C178.7,3.2,178.9,3,179.2,3z"/>
		<path class="st0" d="M191.8,42.6c3.5-3.5,7.7-5.2,12.5-5.2c4.9,0,9.1,1.7,12.6,5.2c3.5,3.5,5.2,7.7,5.2,12.5v17.3
			c0,0.4-0.2,0.5-0.6,0.5c-0.4,0-0.5-0.2-0.5-0.5V55.2c0-4.6-1.6-8.5-4.9-11.8c-3.3-3.3-7.2-4.9-11.8-4.9c-4.6,0-8.5,1.6-11.8,4.9
			c-3.3,3.3-4.9,7.2-4.9,11.8c0,4.6,1.6,8.5,4.9,11.8c3.3,3.3,7.2,4.9,11.8,4.9c4.1,0,7.7-1.3,10.8-4c0.3-0.2,0.5-0.2,0.7,0
			c0.3,0.3,0.2,0.6,0,0.8c-3.3,2.8-7.2,4.2-11.5,4.2c-4.9,0-9.1-1.7-12.5-5.2c-3.5-3.5-5.2-7.7-5.2-12.5
			C186.6,50.3,188.3,46.1,191.8,42.6z"/>
		<path class="st0" d="M257.5,38c0-0.4,0.2-0.6,0.5-0.6c0.4,0,0.6,0.2,0.6,0.6v34.5c0,0.4-0.2,0.5-0.6,0.5c-0.4,0-0.5-0.2-0.5-0.5
			V38z M293.1,72.5c0,0.4-0.2,0.5-0.6,0.5c-0.4,0-0.5-0.2-0.5-0.5V55.2c0-4.6-1.6-8.5-4.9-11.8c-3.3-3.3-7.2-4.9-11.8-4.9
			c-4.1,0-7.7,1.3-10.8,4c-0.3,0.2-0.5,0.2-0.8,0c-0.2-0.3-0.2-0.6,0.1-0.8c3.3-2.8,7.1-4.2,11.5-4.2c4.9,0,9.1,1.7,12.6,5.2
			c3.5,3.5,5.2,7.7,5.2,12.5V72.5z M298.3,41.7c3.3-2.8,7.1-4.2,11.5-4.2c4.9,0,9.1,1.7,12.6,5.2c3.5,3.5,5.2,7.7,5.2,12.5v17.2
			c0,0.4-0.2,0.5-0.5,0.5c-0.4,0-0.6-0.2-0.6-0.5V55.2c0-4.6-1.6-8.5-4.9-11.8c-3.3-3.3-7.2-4.9-11.8-4.9c-4.1,0-7.7,1.3-10.8,4
			c-0.3,0.2-0.5,0.2-0.8,0C297.9,42.2,298,41.9,298.3,41.7z"/>
		<path class="st0" d="M339.5,42.6c3.5-3.5,7.7-5.2,12.5-5.2c4.9,0,9.1,1.7,12.6,5.2c3.5,3.5,5.2,7.7,5.2,12.5
			c0,0.4-0.2,0.6-0.5,0.6h-33.9c0.1,4.5,1.8,8.3,5.1,11.4c3.2,3.1,7.1,4.7,11.6,4.7c5,0,9.2-1.9,12.5-5.6c0.2-0.3,0.5-0.3,0.8,0
			c0.3,0.3,0.3,0.5,0,0.8c-3.5,4-7.9,6-13.3,6c-4.9,0-9.1-1.7-12.5-5.2c-3.5-3.5-5.2-7.7-5.2-12.6C334.3,50.3,336,46.1,339.5,42.6z
			 M368.8,54.7c-0.1-4.5-1.8-8.3-5.1-11.4c-3.2-3.1-7.1-4.7-11.6-4.7c-4.5,0-8.3,1.6-11.6,4.7c-3.3,3.1-4.9,6.9-5.1,11.4H368.8z"/>
		<path class="st0" d="M394.5,37.5c4.4,0,8.2,1.4,11.5,4.2c0.3,0.3,0.3,0.5,0,0.8c-0.2,0.3-0.5,0.3-0.8,0c-3.1-2.6-6.7-4-10.8-4
			c-4.6,0-8.5,1.6-11.8,4.9c-3.3,3.3-4.9,7.2-4.9,11.8s1.6,8.5,4.9,11.8c3.3,3.3,7.2,4.9,11.8,4.9s8.5-1.6,11.8-4.9
			c3.3-3.3,4.9-7.2,4.9-11.8V3.5c0-0.4,0.2-0.5,0.5-0.5c0.4,0,0.5,0.2,0.5,0.5v51.7c0,4.9-1.7,9.1-5.2,12.5
			c-3.5,3.5-7.7,5.2-12.6,5.2c-4.9,0-9.1-1.7-12.5-5.2c-3.5-3.5-5.2-7.7-5.2-12.5c0-4.9,1.7-9.1,5.2-12.6
			C385.5,39.2,389.7,37.5,394.5,37.5z"/>
		<path class="st0" d="M424.9,42.6c3.5-3.5,7.7-5.2,12.5-5.2c4.9,0,9.1,1.7,12.6,5.2c3.5,3.5,5.2,7.7,5.2,12.5
			c0,0.4-0.2,0.6-0.5,0.6h-33.9c0.1,4.5,1.8,8.3,5.1,11.4c3.2,3.1,7.1,4.7,11.6,4.7c5,0,9.2-1.9,12.5-5.6c0.2-0.3,0.5-0.3,0.8,0
			c0.3,0.3,0.3,0.5,0,0.8c-3.5,4-7.9,6-13.3,6c-4.9,0-9.1-1.7-12.5-5.2c-3.5-3.5-5.2-7.7-5.2-12.6C419.7,50.3,421.4,46.1,424.9,42.6
			z M454.2,54.7c-0.1-4.5-1.8-8.3-5.1-11.4c-3.2-3.1-7.1-4.7-11.6-4.7c-4.5,0-8.3,1.6-11.6,4.7c-3.3,3.1-4.9,6.9-5.1,11.4H454.2z"/>
		<path class="st0" d="M462.5,37.4c0.4,0,0.6,0.2,0.6,0.5v34.6c0,0.4-0.2,0.5-0.6,0.5c-0.4,0-0.5-0.2-0.5-0.5V37.9
			C462,37.5,462.2,37.4,462.5,37.4z"/>
		<path class="st0" d="M471.2,72.5c0,0.4-0.2,0.5-0.6,0.5c-0.4,0-0.5-0.2-0.5-0.5V38c0-0.4,0.2-0.5,0.5-0.5c0.4,0,0.6,0.2,0.6,0.5
			V72.5z M476.4,41.7c3.3-2.8,7.1-4.2,11.5-4.2c0.4,0,0.6,0.2,0.6,0.6c0,0.4-0.2,0.5-0.6,0.5c-4.1,0-7.7,1.3-10.8,4
			c-0.1,0.1-0.2,0.1-0.3,0.1c-0.2,0-0.3-0.1-0.4-0.2C476,42.2,476.1,41.9,476.4,41.7z"/>
		<path class="st0" d="M500.5,42.6c3.5-3.5,7.7-5.2,12.5-5.2c4.9,0,9.1,1.7,12.6,5.2c3.5,3.5,5.2,7.7,5.2,12.6
			c0,4.9-1.7,9.1-5.2,12.5C522.2,71.3,518,73,513,73c-4.9,0-9.1-1.7-12.5-5.2c-3.5-3.5-5.2-7.6-5.2-12.5
			C495.3,50.3,497,46.1,500.5,42.6z M501.3,67c3.3,3.3,7.2,4.9,11.8,4.9c4.6,0,8.6-1.6,11.8-4.9c3.3-3.3,4.9-7.2,4.9-11.8
			s-1.6-8.5-4.9-11.8c-3.3-3.3-7.2-4.9-11.8-4.9c-4.6,0-8.5,1.6-11.8,4.9c-3.3,3.3-4.9,7.2-4.9,11.8S498,63.8,501.3,67z"/>
		<path class="st0" d="M544.8,52.8c2,0.9,3.9,1.5,5.8,1.9c2.2,0.5,4.3,1.2,6.4,2.2c4,1.9,6,4.2,6,6.9c0,2.4-0.8,4.4-2.4,6
			c-2.2,2.1-5.4,3.2-9.7,3.2c-0.2,0-0.3,0-0.4,0c-4.3,0.2-7.6-0.9-10.1-3.2c-1.6-1.5-2.4-3.5-2.4-6c0-0.4,0.2-0.5,0.5-0.5
			c0.4,0,0.6,0.2,0.6,0.5c0,2.1,0.7,3.8,2,5.1c2.2,2.1,5.3,3.1,9.3,2.9h0c4,0.2,7.1-0.8,9.3-2.9c1.4-1.3,2.1-3,2.1-5.1
			c0-2.3-1.9-4.4-5.7-6.1c-2-0.9-3.9-1.6-5.8-2c-2.2-0.4-4.3-1.1-6.3-2.1c-4-1.9-6-4.3-6-7.1c0-2.4,0.8-4.4,2.4-5.9
			c2.4-2.3,5.7-3.4,10.1-3.2c4.3-0.2,7.6,0.9,10.1,3.2c1.6,1.5,2.4,3.5,2.4,5.9c0,0.4-0.2,0.5-0.5,0.5c-0.4,0-0.5-0.2-0.5-0.5
			c0-2.1-0.7-3.8-2.1-5.1c-2.2-2.1-5.3-3.1-9.3-2.9h0c-4-0.2-7.1,0.8-9.3,2.9c-1.3,1.3-2,3-2,5.1C539.1,49.1,541,51.1,544.8,52.8z"
			/>
	</g>
</g>
</svg>
