<?xml version="1.0" encoding="utf-8"?>
<!-- Generator: Adobe Illustrator 21.1.0, SVG Export Plug-In . SVG Version: 6.00 Build 0)  -->
<svg version="1.1" id="Layer_1" xmlns="http://www.w3.org/2000/svg" xmlns:xlink="http://www.w3.org/1999/xlink" x="0px" y="0px"
	 viewBox="0 0 566.5 76" style="enable-background:new 0 0 566.5 76;" xml:space="preserve">
<style type="text/css">
	.st0{fill:#FF5252;}
	.st1{fill:none;stroke:#FFFFFF;stroke-miterlimit:10;}
	.st2{fill:#EEEEEE;}
	.st3{fill:#FFFFFF;}
	.st4{fill:none;}
	.st5{fill:#00B0FF;}
	.st6{fill:#757575;}
	.st7{fill:#BDBDBD;}
	.st8{fill:#E0E0E0;}
	.st9{fill:none;stroke:#E0E0E0;stroke-miterlimit:10;}
	.st10{fill:none;stroke:#EEEEEE;stroke-width:6;stroke-miterlimit:10;}
	.st11{fill:#EA80FC;}
	.st12{fill:#FFFFFF;stroke:#FF5252;stroke-miterlimit:10;}
	.st13{fill:#FFFFFF;stroke:#EEEEEE;stroke-miterlimit:10;}
	.st14{fill:#424242;}
	.st15{fill:#FAFAFA;}
</style>
<g>
	<g>
		<path class="st0" d="M37.7,58.1c0.3,0,0.6,0.1,0.9,0.2c1,0.6,1.2,1.4,0.6,2.4c-1.5,2.7-3.7,4.8-6.4,6.4c-2.7,1.6-5.6,2.4-8.8,2.4
			c-4.9,0-9-1.7-12.5-5.1C8.1,60.9,6.4,56.8,6.4,52c0-4.9,1.7-9,5.1-12.4c3.5-3.4,7.6-5.1,12.5-5.1c3.1,0,6,0.8,8.8,2.4
			c2.8,1.6,4.9,3.7,6.5,6.4c0.2,0.4,0.3,0.9,0.1,1.3c-0.1,0.5-0.4,0.8-0.8,1.1c-0.3,0.2-0.6,0.2-0.9,0.2c-0.7,0-1.2-0.3-1.5-0.8
			c-2.7-4.7-6.8-7.1-12.2-7.1c-3.9,0-7.2,1.4-10,4.1c-2.8,2.8-4.1,6.1-4.1,9.9c0,3.9,1.4,7.2,4.1,9.9c2.8,2.8,6.1,4.1,10,4.1
			c5.4,0,9.5-2.3,12.2-7C36.5,58.4,37.1,58.1,37.7,58.1z"/>
		<path class="st0" d="M51.1,39.6c3.4-3.4,7.5-5.1,12.4-5.1c4.8,0,9,1.7,12.4,5.1C79.3,43,81,47.1,81,52v15.8c0,1.2-0.6,1.8-1.8,1.8
			c-1.2,0-1.8-0.6-1.8-1.8V52c0-3.9-1.4-7.2-4.1-9.9c-2.8-2.7-6-4.1-9.9-4.1c-3.9,0-7.2,1.4-9.9,4.1c-2.7,2.8-4.1,6-4.1,9.9
			c0,3.9,1.4,7.2,4.1,9.9c2.8,2.7,6.1,4.1,9.9,4.1c3.4,0,6.4-1.1,9-3.3c0.3-0.3,0.7-0.4,1.1-0.4c0.6,0,1,0.2,1.3,0.6
			c0.8,0.9,0.7,1.7-0.2,2.5c-3.3,2.8-7.1,4.2-11.3,4.2c-4.9,0-9-1.7-12.4-5.1C47.7,60.9,46,56.8,46,52C46,47.1,47.7,43,51.1,39.6z"
			/>
		<path class="st0" d="M91.1,67.7c0,0.5-0.2,0.9-0.5,1.3c-0.3,0.3-0.8,0.5-1.3,0.5c-0.5,0-0.9-0.2-1.3-0.5c-0.3-0.3-0.5-0.8-0.5-1.3
			V36.2c0-0.5,0.2-0.9,0.5-1.3c0.3-0.3,0.8-0.5,1.3-0.5c0.5,0,0.9,0.2,1.3,0.5c0.3,0.3,0.5,0.8,0.5,1.3V67.7z M93.8,38.7
			c3.3-2.8,7.1-4.2,11.4-4.2c4.8,0,9,1.7,12.4,5.1c3.4,3.4,5.1,7.6,5.1,12.4v15.7c0,0.5-0.2,0.9-0.5,1.3c-0.3,0.3-0.8,0.5-1.3,0.5
			c-0.5,0-0.9-0.2-1.2-0.5c-0.4-0.3-0.6-0.8-0.6-1.3V52c0-3.9-1.4-7.2-4.1-9.9c-2.8-2.8-6-4.1-9.9-4.1c-3.4,0-6.4,1.1-9,3.3
			c-0.3,0.3-0.7,0.4-1.2,0.4c-0.6,0-1-0.2-1.3-0.6c-0.3-0.4-0.4-0.8-0.4-1.3C93.2,39.4,93.4,39,93.8,38.7z M125.3,38.7
			c3.2-2.8,7-4.2,11.3-4.2c4.8,0,9,1.7,12.4,5.1s5.1,7.6,5.1,12.4v15.7c0,0.5-0.2,0.9-0.5,1.3c-0.3,0.3-0.8,0.5-1.3,0.5
			c-0.5,0-0.9-0.2-1.3-0.5c-0.3-0.3-0.5-0.8-0.5-1.3V52c0-3.9-1.4-7.2-4.1-9.9c-2.7-2.8-6-4.1-9.9-4.1c-3.4,0-6.4,1.1-9,3.3
			c-0.3,0.3-0.7,0.4-1.2,0.4c-0.5,0-1-0.2-1.3-0.6c-0.3-0.4-0.4-0.8-0.4-1.3C124.7,39.4,124.9,39,125.3,38.7z"/>
		<path class="st0" d="M160.9,35c0.3-0.3,0.8-0.5,1.3-0.5c0.5,0,0.9,0.2,1.3,0.5c0.3,0.3,0.5,0.8,0.5,1.3v31.5
			c0,0.5-0.2,0.9-0.5,1.3c-0.3,0.3-0.8,0.5-1.3,0.5c-0.5,0-0.9-0.2-1.3-0.5c-0.3-0.3-0.5-0.8-0.5-1.3V36.2
			C160.4,35.7,160.5,35.3,160.9,35z"/>
		<path class="st0" d="M170.9,3.5c0.3-0.3,0.8-0.5,1.3-0.5c0.5,0,0.9,0.2,1.3,0.5c0.3,0.3,0.5,0.8,0.5,1.3v63c0,0.5-0.2,0.9-0.5,1.3
			c-0.3,0.3-0.8,0.5-1.3,0.5c-0.5,0-0.9-0.2-1.3-0.5c-0.3-0.3-0.5-0.8-0.5-1.3v-63C170.4,4.2,170.6,3.8,170.9,3.5z"/>
		<path class="st0" d="M180.6,3.5c0.3-0.3,0.8-0.5,1.3-0.5c0.5,0,0.9,0.2,1.3,0.5c0.3,0.3,0.5,0.8,0.5,1.3v63c0,0.5-0.2,0.9-0.5,1.3
			c-0.3,0.3-0.8,0.5-1.3,0.5c-0.5,0-0.9-0.2-1.3-0.5c-0.3-0.3-0.5-0.8-0.5-1.3v-63C180.1,4.2,180.3,3.8,180.6,3.5z"/>
		<path class="st0" d="M195.1,39.6c3.4-3.4,7.5-5.1,12.4-5.1c4.8,0,9,1.7,12.4,5.1c3.4,3.4,5.1,7.6,5.1,12.4v15.8
			c0,1.2-0.6,1.8-1.8,1.8c-1.2,0-1.8-0.6-1.8-1.8V52c0-3.9-1.4-7.2-4.1-9.9c-2.8-2.7-6-4.1-9.9-4.1c-3.9,0-7.2,1.4-9.9,4.1
			c-2.7,2.8-4.1,6-4.1,9.9c0,3.9,1.4,7.2,4.1,9.9c2.8,2.7,6.1,4.1,9.9,4.1c3.4,0,6.4-1.1,9-3.3c0.3-0.3,0.7-0.4,1.1-0.4
			c0.6,0,1,0.2,1.3,0.6c0.8,0.9,0.7,1.7-0.2,2.5c-3.3,2.8-7.1,4.2-11.3,4.2c-4.9,0-9-1.7-12.4-5.1c-3.4-3.4-5.1-7.5-5.1-12.4
			C190,47.1,191.7,43,195.1,39.6z"/>
		<path class="st0" d="M262.4,67.7c0,0.5-0.2,0.9-0.5,1.3c-0.3,0.3-0.8,0.5-1.3,0.5c-0.5,0-0.9-0.2-1.3-0.5
			c-0.3-0.3-0.5-0.8-0.5-1.3V36.2c0-0.5,0.2-0.9,0.5-1.3c0.3-0.3,0.8-0.5,1.3-0.5c0.5,0,0.9,0.2,1.3,0.5c0.3,0.3,0.5,0.8,0.5,1.3
			V67.7z M265.1,38.7c3.3-2.8,7.1-4.2,11.4-4.2c4.8,0,9,1.7,12.4,5.1c3.4,3.4,5.1,7.6,5.1,12.4v15.7c0,0.5-0.2,0.9-0.5,1.3
			c-0.3,0.3-0.8,0.5-1.3,0.5c-0.5,0-0.9-0.2-1.2-0.5c-0.4-0.3-0.6-0.8-0.6-1.3V52c0-3.9-1.4-7.2-4.1-9.9c-2.8-2.8-6-4.1-9.9-4.1
			c-3.4,0-6.4,1.1-9,3.3c-0.3,0.3-0.7,0.4-1.2,0.4c-0.6,0-1-0.2-1.3-0.6c-0.3-0.4-0.4-0.8-0.4-1.3C264.5,39.4,264.7,39,265.1,38.7z
			 M296.6,38.7c3.2-2.8,7-4.2,11.3-4.2c4.8,0,9,1.7,12.4,5.1s5.1,7.6,5.1,12.4v15.7c0,0.5-0.2,0.9-0.5,1.3c-0.3,0.3-0.8,0.5-1.3,0.5
			c-0.5,0-0.9-0.2-1.3-0.5c-0.3-0.3-0.5-0.8-0.5-1.3V52c0-3.9-1.4-7.2-4.1-9.9c-2.7-2.8-6-4.1-9.9-4.1c-3.4,0-6.4,1.1-9,3.3
			c-0.3,0.3-0.7,0.4-1.2,0.4c-0.5,0-1-0.2-1.3-0.6c-0.3-0.4-0.4-0.8-0.4-1.3C296,39.4,296.3,39,296.6,38.7z"/>
		<path class="st0" d="M336.8,39.6c3.4-3.4,7.6-5.1,12.4-5.1s9,1.7,12.4,5.1c3.4,3.4,5.1,7.6,5.1,12.4c0,1.2-0.6,1.8-1.8,1.8h-29.7
			c0.4,3.5,2,6.4,4.6,8.7c2.7,2.4,5.8,3.5,9.3,3.5c4.2,0,7.7-1.6,10.4-4.7c0.3-0.4,0.8-0.6,1.3-0.6c0.5,0,0.9,0.2,1.2,0.5
			c0.3,0.3,0.5,0.7,0.6,1.2c0,0.5-0.1,0.9-0.4,1.3c-3.5,3.9-7.9,5.8-13.1,5.8c-4.8,0-9-1.7-12.4-5.1c-3.4-3.4-5.1-7.5-5.1-12.4
			C331.7,47.1,333.4,43,336.8,39.6z M363.1,50.2c-0.4-3.5-2-6.4-4.6-8.7c-2.6-2.3-5.7-3.5-9.3-3.5c-3.6,0-6.7,1.2-9.3,3.5
			c-2.6,2.3-4.2,5.2-4.6,8.7H363.1z"/>
		<path class="st0" d="M390.9,34.5c4.3,0,8,1.4,11.3,4.2c0.4,0.3,0.6,0.7,0.6,1.2c0,0.5-0.1,0.9-0.4,1.3c-0.3,0.4-0.8,0.6-1.3,0.6
			c-0.4,0-0.8-0.1-1.1-0.4c-2.6-2.2-5.6-3.3-9-3.3c-3.9,0-7.2,1.4-9.9,4.1c-2.7,2.8-4.1,6-4.1,9.9c0,3.9,1.4,7.2,4.1,9.9
			c2.8,2.7,6.1,4.1,9.9,4.1c3.8,0,7.1-1.4,9.9-4.1c2.7-2.8,4.1-6.1,4.1-9.9V4.7c0-0.5,0.2-0.9,0.5-1.3c0.3-0.3,0.8-0.5,1.3-0.5
			c0.5,0,0.9,0.2,1.3,0.5c0.3,0.3,0.5,0.8,0.5,1.3V52c0,4.9-1.7,9-5.1,12.4c-3.4,3.4-7.5,5.1-12.3,5.1c-4.9,0-9-1.7-12.4-5.1
			c-3.4-3.4-5.1-7.5-5.1-12.4c0-4.8,1.7-8.9,5.1-12.3C381.9,36.2,386.1,34.5,390.9,34.5z"/>
		<path class="st0" d="M420.2,39.6c3.4-3.4,7.6-5.1,12.4-5.1s9,1.7,12.4,5.1c3.4,3.4,5.1,7.6,5.1,12.4c0,1.2-0.6,1.8-1.8,1.8h-29.7
			c0.4,3.5,2,6.4,4.6,8.7c2.7,2.4,5.8,3.5,9.3,3.5c4.2,0,7.7-1.6,10.4-4.7c0.3-0.4,0.8-0.6,1.3-0.6c0.5,0,0.9,0.2,1.2,0.5
			c0.3,0.3,0.5,0.7,0.6,1.2c0,0.5-0.1,0.9-0.4,1.3c-3.5,3.9-7.9,5.8-13.1,5.8c-4.8,0-9-1.7-12.4-5.1c-3.4-3.4-5.1-7.5-5.1-12.4
			C415,47.1,416.7,43,420.2,39.6z M446.4,50.2c-0.4-3.5-2-6.4-4.6-8.7c-2.6-2.3-5.7-3.5-9.3-3.5c-3.6,0-6.7,1.2-9.3,3.5
			c-2.6,2.3-4.2,5.2-4.6,8.7H446.4z"/>
		<path class="st0" d="M457.2,35c0.3-0.3,0.8-0.5,1.3-0.5c0.5,0,0.9,0.2,1.3,0.5c0.3,0.3,0.5,0.8,0.5,1.3v31.5
			c0,0.5-0.2,0.9-0.5,1.3c-0.3,0.3-0.8,0.5-1.3,0.5c-0.5,0-0.9-0.2-1.3-0.5c-0.3-0.3-0.5-0.8-0.5-1.3V36.2
			C456.7,35.7,456.8,35.3,457.2,35z"/>
		<path class="st0" d="M466.9,36.2c0-1.2,0.6-1.8,1.8-1.8c1.2,0,1.8,0.6,1.8,1.8v31.5c0,1.2-0.6,1.8-1.8,1.8c-1.2,0-1.8-0.6-1.8-1.8
			V36.2z M484.4,38c-3.4,0-6.5,1.1-9.1,3.3c-0.3,0.3-0.7,0.4-1.1,0.4c-0.6,0-1-0.2-1.3-0.6c-0.8-0.9-0.7-1.7,0.2-2.5
			c3.3-2.8,7.1-4.2,11.4-4.2c1.2,0,1.8,0.6,1.8,1.8C486.2,37.4,485.6,38,484.4,38z"/>
		<path class="st0" d="M497.7,39.6c3.4-3.4,7.6-5.1,12.4-5.1s9,1.7,12.4,5.1c3.4,3.4,5.1,7.5,5.1,12.4c0,4.8-1.7,9-5.1,12.4
			c-3.4,3.4-7.6,5.1-12.4,5.1s-9-1.7-12.4-5.1c-3.4-3.4-5.1-7.6-5.1-12.4C492.6,47.2,494.3,43,497.7,39.6z M500.3,61.9
			c2.7,2.7,6,4.1,9.9,4.1c3.8,0,7.1-1.4,9.9-4.1c2.7-2.8,4.1-6,4.1-9.9c0-3.9-1.4-7.2-4.1-9.9c-2.8-2.7-6-4.1-9.9-4.1
			c-3.9,0-7.2,1.4-9.9,4.1c-2.8,2.8-4.1,6.1-4.1,9.9C496.1,55.8,497.5,59.1,500.3,61.9z"/>
		<path class="st0" d="M541.6,48.3c1.8,0.9,3.7,1.6,5.7,2c2.3,0.5,4.6,1.3,6.6,2.3c3.8,1.9,5.7,4.4,5.7,7.2c0,2.6-0.9,4.7-2.6,6.4
			c-2.3,2.2-5.5,3.2-9.7,3.2c-0.1,0-0.2,0-0.3,0s-0.2,0-0.3,0c-4.2,0-7.5-1.1-9.8-3.3c-1.7-1.6-2.6-3.8-2.6-6.4
			c0-1.2,0.6-1.8,1.8-1.8c1.2,0,1.8,0.6,1.8,1.8c0,1.6,0.5,2.8,1.5,3.8c1.6,1.5,4.1,2.3,7.4,2.3h0.6c3.3,0,5.8-0.8,7.3-2.3
			c1-1,1.5-2.2,1.5-3.8c0-1.5-1.3-2.8-3.8-4.1c-1.8-0.9-3.7-1.6-5.7-2c-2.4-0.5-4.6-1.2-6.6-2.3c-3.8-1.9-5.7-4.4-5.7-7.3
			c0-2.6,0.9-4.7,2.6-6.4c2.3-2.2,5.6-3.3,9.8-3.3h0.6c4.2,0,7.5,1.1,9.8,3.3c1.7,1.6,2.6,3.8,2.6,6.4c0,1.2-0.6,1.8-1.8,1.8
			c-1.2,0-1.8-0.6-1.8-1.8c0-1.6-0.5-2.8-1.5-3.8c-1.6-1.5-4.1-2.3-7.4-2.3h-0.5c-3.3,0-5.8,0.8-7.4,2.3c-1,1-1.5,2.2-1.5,3.8
			C537.8,45.7,539,47.1,541.6,48.3z"/>
	</g>
</g>
</svg>
